<svg width="88" height="86" viewBox="0 0 88 86" fill="none" xmlns="http://www.w3.org/2000/svg">
<g clip-path="url(#clip0_23_97)">
<path d="M9.33011 21.8857C11.3928 18.304 13.804 15.1826 16.686 12.4333C21.9402 7.42358 28.097 4.05256 35.1382 2.29682C36.4127 1.97949 37.0136 2.33324 37.3595 3.62338C38.1971 6.7525 39.0164 9.88682 39.8305 13.0237C40.1973 14.4335 39.8618 14.9928 38.4494 15.3465C33.0157 16.7095 28.4013 19.4458 24.6219 23.5868C14.4621 34.7221 15.3907 52.2613 26.669 62.2859C26.9603 62.5434 27.2621 62.7905 27.5404 63.0636C28.1646 63.6775 28.2505 64.3928 27.7251 65.0768C25.5974 67.86 23.4593 70.6354 21.2873 73.3847C20.6579 74.1807 19.8515 74.1677 18.9854 73.4524C13.5985 69.0045 9.5356 63.5656 7.00733 57.0525C2.8768 46.4192 3.07188 35.8275 7.6446 25.3555C7.90731 24.7521 7.8865 24.3931 7.35328 23.9587C6.34926 23.1368 5.35564 22.2862 4.48167 21.3342C4.0655 20.8816 3.72735 20.1767 3.70655 19.5733C3.61811 17.2401 3.64412 14.9017 3.68574 12.5633C3.69874 11.8558 3.50626 11.4995 2.82998 11.1796C0.673669 10.1703 -0.418791 7.69929 0.148248 5.38692C0.702281 3.13697 2.83258 1.48528 5.15015 1.51129C7.54316 1.5373 9.62143 3.2072 10.1469 5.51958C10.6567 7.77212 9.47317 10.2041 7.27004 11.2368C6.66659 11.5203 6.49752 11.8454 6.51052 12.4775C6.54954 14.522 6.49492 16.5664 6.54954 18.6109C6.55995 19.0297 6.79404 19.5291 7.08797 19.8412C7.74865 20.5435 8.51077 21.1522 9.33011 21.8857ZM19.901 70.4013C21.4902 68.3438 23.0301 66.3514 24.5465 64.3876C16.197 56.1317 12.8182 46.3438 15.5233 34.951C18.2259 23.5686 25.6858 16.3765 36.7456 12.722C36.1006 10.2614 35.4633 7.83715 34.8078 5.3349C24.4711 8.40159 16.7718 14.5454 11.4994 23.8443C12.4722 24.7157 13.367 25.5116 14.2566 26.3127C15.219 27.1789 15.4141 28.0347 14.8106 28.7343C14.1994 29.4418 13.3098 29.3638 12.35 28.5107C11.6373 27.8786 10.9298 27.2413 10.1911 26.578C3.31378 41.8517 7.69663 59.9891 19.901 70.3987V70.4013ZM7.29866 6.61464C7.28045 5.38172 6.28163 4.40631 5.04351 4.41151C3.81319 4.41411 2.82738 5.41553 2.83258 6.65365C2.83778 7.85536 3.89122 8.8958 5.08512 8.87499C6.30504 8.85418 7.31686 7.82155 7.29866 6.61464Z" fill="#001B2E"/>
<path d="M62.1974 38.504C62.1974 41.7502 62.135 44.9964 62.2208 48.2373C62.2702 50.1517 61.4561 51.4601 59.9084 52.4225C57.7391 53.7725 55.3071 54.3161 52.823 54.6464C51.5719 54.8129 50.2974 54.7921 49.0462 54.9585C48.6015 55.0184 48.0656 55.2681 47.7925 55.6114C44.1744 60.1503 39.4664 62.0231 33.835 60.8136C28.2271 59.6093 24.7026 55.9522 23.3812 50.3598C21.7243 43.3447 26.1384 36.15 33.1848 34.2642C33.8741 34.0796 34.0431 33.8038 34.0223 33.1484C33.9781 31.5929 34.0561 30.0323 33.9963 28.4768C33.9313 26.7679 34.6986 25.561 36.0616 24.6532C37.9656 23.3865 40.1219 22.809 42.3406 22.4449C47.2021 21.6463 52.0479 21.7192 56.7845 23.1576C58.1501 23.5737 59.4428 24.3307 60.6601 25.1006C61.7604 25.7977 62.2156 26.9474 62.2052 28.2843C62.1818 31.6918 62.1974 35.0992 62.1974 38.5066V38.504ZM36.8289 36.6911C30.862 36.6781 26.0266 41.4615 26.0058 47.4024C25.9823 53.3979 30.8178 58.2593 36.8003 58.2567C42.775 58.2541 47.5922 53.4031 47.5922 47.3868C47.5922 41.5447 42.7204 36.7015 36.8315 36.6885L36.8289 36.6911ZM48.0786 30.9218C51.3092 30.862 54.5372 30.5967 57.5596 29.2545C58.1969 28.971 58.6989 28.378 59.2633 27.9254C58.6963 27.4442 58.2021 26.8095 57.5518 26.5104C55.3461 25.4986 52.9713 25.1162 50.5653 24.9601C46.5518 24.7 42.5799 24.8951 38.8083 26.4688C38.1138 26.7575 37.5702 27.4078 36.959 27.8916C37.5754 28.3728 38.1243 29.01 38.8187 29.3118C41.7554 30.5915 44.8897 30.8568 48.0786 30.9192V30.9218ZM59.292 31.7542C50.404 34.4957 46.0446 34.4931 36.9954 31.7776V33.77C39.9606 33.8767 42.7152 34.6128 44.8845 36.5272C46.3255 37.7991 47.7951 38.1347 49.5535 37.937C49.7772 37.911 50.0087 37.9292 50.2323 37.911C52.8907 37.7029 55.5048 37.2997 57.955 36.1526C58.8472 35.7365 59.4454 35.1876 59.3102 34.0692C59.2217 33.3356 59.292 32.5813 59.292 31.7542ZM59.2868 38.7225C55.9183 40.3092 52.4121 40.6889 48.8954 40.8866C49.3948 42.2704 49.863 43.5658 50.3624 44.9521C51.0205 44.8845 51.7462 44.8975 52.4199 44.7232C54.3499 44.2212 56.2747 43.6958 58.1605 43.0585C58.6183 42.9025 59.1567 42.312 59.2347 41.849C59.4012 40.8814 59.2842 39.867 59.2842 38.7225H59.2868ZM59.3024 46.1122C56.3163 46.7833 53.4317 47.4336 50.5419 48.0813C50.3234 49.283 50.0867 50.5861 49.8292 52.0193C50.7916 51.9283 51.7748 51.9517 52.6956 51.7228C54.571 51.2572 56.4334 50.711 58.2541 50.0685C58.6937 49.9124 59.1775 49.2908 59.2555 48.8174C59.4116 47.8732 59.3024 46.8848 59.3024 46.1096V46.1122Z" fill="#001B2E"/>
<path d="M67.6779 75.9909C68.6039 77.0054 69.5715 78.09 70.5781 79.1357C70.7472 79.3125 71.0905 79.388 71.3558 79.3932C72.6538 79.4192 73.9517 79.3828 75.2497 79.4166C75.7439 79.4296 75.9676 79.2631 76.1783 78.8053C77.2733 76.4305 79.6507 75.2834 82.1062 75.8869C84.4888 76.4721 86.1144 78.6909 85.9714 81.1645C85.8283 83.6095 83.9893 85.5812 81.4975 85.9531C79.4062 86.2653 77.1693 85.0714 76.2511 83.0425C75.9702 82.4234 75.632 82.27 75.013 82.2882C73.6526 82.3298 72.2844 82.257 70.9266 82.3168C69.933 82.361 69.2021 82.0437 68.5597 81.2712C67.4594 79.955 66.2759 78.7091 65.2277 77.5438C62.6214 78.6258 60.1737 79.8406 57.6012 80.6703C47.2723 84.0049 37.154 83.3286 27.3063 78.7559C25.8185 78.064 25.6182 77.458 26.3413 75.9961C27.7355 73.1792 29.1297 70.3622 30.529 67.5478C31.2131 66.1744 31.775 65.9845 33.1692 66.6296C47.7067 73.3534 64.5124 66.6556 70.3518 51.7956C70.7524 50.7733 71.0307 49.7017 71.3662 48.6534C71.681 47.665 72.1726 47.2905 73.1792 47.4777C76.5892 48.1098 79.9915 48.7731 83.3911 49.4572C84.4185 49.6653 84.7931 50.4144 84.5174 51.5432C82.6628 59.102 78.9796 65.636 73.4029 71.0567C71.6237 72.7864 69.6417 74.3132 67.6831 75.9909H67.6779ZM73.8815 50.5288C71.0801 59.1566 65.7401 65.5241 57.5648 69.3217C49.3896 73.1193 41.0843 73.0595 32.7244 69.6339C31.5851 71.928 30.4692 74.1754 29.3534 76.4253C39.4222 81.4038 53.4057 80.8524 63.0141 75.1092C62.4523 74.4745 61.8983 73.8476 61.3468 73.2208C60.5223 72.2844 60.4442 71.465 61.1153 70.8408C61.8228 70.1827 62.6344 70.3518 63.5239 71.3376C64.2132 72.1023 64.9025 72.8644 65.5788 73.6135C73.3613 68.7651 79.5311 59.8954 81.318 51.9828C78.8496 51.499 76.3811 51.0178 73.8815 50.5288ZM83.0608 80.7743C83.0399 79.5466 82.0255 78.5816 80.7848 78.6102C79.5441 78.6389 78.5531 79.6663 78.5999 80.8732C78.6467 82.0853 79.7001 83.0945 80.8914 83.0685C82.101 83.0425 83.079 82.0047 83.0608 80.7743Z" fill="#001B2E"/>
<path d="M67.5296 7.98803C68.5987 6.80193 69.6365 5.68606 70.6301 4.53378C71.1582 3.91992 71.7616 3.6312 72.5784 3.652C73.9725 3.69102 75.3693 3.62599 76.7635 3.67802C77.4866 3.70403 77.8898 3.52975 78.2305 2.80665C79.3178 0.512483 82.0021 -0.540961 84.4003 0.273182C86.7621 1.07432 88.2265 3.45692 87.8156 5.83432C87.3578 8.48224 85.2587 10.3212 82.6914 10.2328C80.6079 10.1625 79.0239 9.19234 78.1395 7.27793C77.8716 6.69789 77.5569 6.4924 76.9664 6.57043C76.7427 6.59904 76.5138 6.57563 76.2849 6.57563C73.7463 6.57563 71.635 7.61781 69.9513 9.70215C70.1802 9.89723 70.4142 10.0975 70.6483 10.2978C80.2282 18.3898 85.2847 28.6771 85.6411 41.2378C85.6905 42.965 85.2665 43.3889 83.5784 43.3889C80.4311 43.3889 77.2837 43.3941 74.1364 43.3889C72.672 43.3889 72.196 42.9259 72.1596 41.5031C71.8267 28.1907 62.6344 17.4248 49.491 15.0162C48.063 14.7535 46.5908 14.7119 45.1368 14.6052C43.8961 14.5142 43.4149 14.098 43.4071 12.8703C43.3863 9.52788 43.3863 6.18547 43.4071 2.84306C43.4149 1.60494 43.9663 1.11073 45.2513 1.12894C52.9531 1.24599 60.0801 3.31906 66.6115 7.41839C66.8846 7.59006 67.1577 7.75913 67.5296 7.99323V7.98803ZM65.5294 10.1443C59.6353 6.34154 53.2834 4.32829 46.3333 4.02916V11.4995C63.2977 13.9133 72.8853 23.4802 75.2107 40.4029H82.7226C82.0255 28.6485 77.0861 19.204 67.951 11.8246C67.0094 12.8651 66.1459 13.8301 65.2667 14.7821C64.4812 15.6326 63.667 15.7367 62.9881 15.0942C62.3535 14.496 62.3821 13.6636 63.0948 12.8495C63.8647 11.9729 64.6554 11.1145 65.5294 10.1443ZM82.8059 7.34036C84.018 7.32475 85.0194 6.28431 84.9882 5.0722C84.957 3.85749 83.9009 2.84046 82.7148 2.87948C81.4897 2.9211 80.5091 3.94593 80.5325 5.16324C80.5559 6.39096 81.5651 7.35596 82.8059 7.34036Z" fill="#E95A0C"/>
<path d="M41.6123 44.2889C41.6071 45.3865 41.1051 46.0342 40.3378 46.0758C39.5158 46.1227 39.006 45.7143 38.7979 44.9027C38.4156 43.4149 36.7093 42.7698 35.4529 43.6776C35.1356 43.9065 34.8365 44.4085 34.8495 44.7753C34.8599 45.0822 35.2813 45.5244 35.6142 45.6441C36.4309 45.938 37.3023 46.081 38.1503 46.2839C40.4262 46.825 41.4198 47.7665 41.5967 49.5457C41.8074 51.6838 40.9282 53.2028 38.8734 54.0794C38.3636 54.2953 38.2361 54.5632 38.1841 55.0704C38.1009 55.8716 37.591 56.3606 36.7613 56.397C36.0044 56.4308 35.4893 55.8351 35.3047 54.9846C35.2344 54.6594 34.9457 54.2693 34.6492 54.1236C33.294 53.4577 32.2978 52.5239 31.9909 50.9919C31.7984 50.0373 32.2172 49.3038 33.0443 49.0983C33.8168 48.9058 34.4749 49.348 34.774 50.2584C35.237 51.6734 37.4272 52.1234 38.439 51.0101C38.9878 50.4041 38.8318 49.6003 38.0072 49.2986C37.1905 49.0021 36.3217 48.8564 35.4711 48.6561C33.0573 48.0839 32.1417 47.1865 31.9206 45.1551C31.7178 43.2953 32.714 41.706 34.7012 40.8294C35.1434 40.6343 35.3281 40.4211 35.3541 39.919C35.3983 39.0685 36.0356 38.491 36.8003 38.5301C37.6274 38.5717 38.1737 39.0529 38.2049 39.8618C38.2283 40.4679 38.4884 40.6604 38.98 40.884C40.5355 41.5863 41.5265 42.7412 41.6175 44.2915L41.6123 44.2889Z" fill="#001B2E"/>
</g>
<defs>
<clipPath id="clip0_23_97">
<rect width="87.8806" height="86" fill="white"/>
</clipPath>
</defs>
</svg>
