<svg width="90" height="87" viewBox="0 0 90 87" fill="none" xmlns="http://www.w3.org/2000/svg">
<path d="M50.8897 66.8933C50.6146 66.1178 50.4185 65.446 50.1254 64.8215C50.0488 64.657 49.6723 64.56 49.4334 64.5578C47.3796 64.5375 45.3282 64.5488 43.2745 64.5442C42.0459 64.542 41.6739 64.1678 41.6739 62.9279C41.6716 53.7572 41.6716 44.5887 41.6739 35.418C41.6739 34.1826 42.0368 33.8355 43.2948 33.8332C45.8535 33.8287 48.4144 33.8287 50.9731 33.8332C52.1521 33.8355 52.5286 34.2142 52.5286 35.4023C52.5331 39.9583 52.5286 44.5166 52.5286 49.0726C52.5286 49.3815 52.5286 49.6881 52.5286 50.2021C53.3108 49.6903 54.0142 49.2981 54.6206 48.7908C54.81 48.633 54.7942 48.1709 54.7942 47.8463C54.8032 40.2514 54.801 32.6565 54.801 25.0615C54.801 23.3032 55.0467 23.0552 56.7848 23.0552C59.118 23.0552 61.4536 23.0552 63.7868 23.0552C65.3694 23.0552 65.6737 23.355 65.6737 24.9037C65.6737 30.6974 65.685 36.4934 65.6602 42.287C65.6579 42.9183 65.827 43.288 66.3771 43.6419C70.7505 46.4553 75.0879 49.3206 79.4613 52.1318C80.2075 52.612 80.5344 53.1688 80.5231 54.0593C80.3878 65.8405 75.4756 75.0495 65.7594 81.7156C64.8599 82.3333 64.1565 82.3266 63.248 81.7156C60.518 79.8851 58.0562 77.7683 55.9755 75.2254C55.5922 74.7587 55.191 74.6167 54.6116 74.6167C40.2108 74.6302 25.8123 74.628 11.4115 74.628C11.1297 74.628 10.8479 74.6415 10.5684 74.6167C9.74777 74.5445 9.32847 74.1388 9.31719 73.3204C9.29465 71.6049 9.2924 69.8893 9.31719 68.1737C9.33072 67.2652 9.7861 66.8933 10.8163 66.891C14.669 66.8865 18.5217 66.8888 22.3744 66.8888C31.5158 66.8888 40.6549 66.8888 49.7963 66.8888C50.1209 66.8888 50.4478 66.8888 50.8829 66.8888L50.8897 66.8933ZM50.8243 55.4028C50.8694 55.9619 50.91 56.5233 50.9641 57.0823C51.8771 66.4537 56.2144 73.8299 63.8702 79.2854C64.3346 79.6168 64.6547 79.6349 65.1259 79.2967C73.5098 73.2866 77.8449 65.1281 78.1718 54.8235C78.1876 54.3208 78.0456 54.0119 77.6082 53.7301C73.4535 51.0474 69.31 48.3512 65.1823 45.6302C64.6818 45.3011 64.3436 45.2989 63.8432 45.6302C59.8552 48.2588 55.8605 50.8761 51.8342 53.4438C51.0497 53.9443 50.6034 54.4583 50.8288 55.4051L50.8243 55.4028ZM44.0793 36.2228V62.1253H49.3364C49.2891 61.8413 49.2395 61.6249 49.2169 61.4039C48.969 58.9467 48.7255 56.4894 48.482 54.0345C48.3986 53.1868 48.712 52.5511 49.4987 52.1814C50.0127 51.9402 50.1841 51.5682 50.1818 50.9821C50.1548 46.3404 50.1683 41.6987 50.166 37.0569C50.166 36.7864 50.139 36.5182 50.1232 36.2251H44.077L44.0793 36.2228ZM11.7361 69.2558V72.2203H53.6851C53.241 71.4403 52.7901 70.7662 52.461 70.0381C52.1724 69.3956 51.7576 69.2423 51.0903 69.2423C38.2969 69.2603 25.5057 69.2558 12.7122 69.2558C12.4057 69.2558 12.1013 69.2558 11.7361 69.2558ZM57.2041 47.1542C59.1383 45.8963 60.9103 44.724 62.707 43.5901C63.1624 43.3038 63.3359 42.9949 63.3337 42.4448C63.3111 37.0502 63.3202 31.6533 63.3179 26.2564C63.3179 25.9903 63.2954 25.7221 63.2841 25.4854H57.2041V47.1542Z" fill="#001B2E"/>
<path d="M49.3499 19.3963C49.3499 26.3397 43.7479 31.9643 36.8135 31.9756C29.8656 31.9869 24.1779 26.2901 24.2117 19.3512C24.2455 12.4169 29.8814 6.8148 36.8158 6.82607C43.7592 6.83734 49.3499 12.4417 49.3499 19.3963ZM46.9874 19.4076C46.9964 13.7627 42.4607 9.20215 36.827 9.19088C31.1596 9.17961 26.5427 13.7898 26.5765 19.4256C26.6103 25.0592 31.1821 29.613 36.8022 29.6108C42.4268 29.6108 46.9784 25.0502 46.9874 19.4076Z" fill="#001B2E"/>
<path d="M39.3587 53.4484C39.3587 56.6248 39.361 59.8012 39.3587 62.9775C39.3587 64.1498 38.9642 64.5443 37.7942 64.5488C35.2085 64.5556 32.6227 64.5556 30.037 64.5488C28.903 64.5466 28.4973 64.1611 28.4973 63.0429C28.4905 56.6631 28.4905 50.2833 28.4973 43.9035C28.4973 42.7425 28.8467 42.3908 30.0167 42.384C32.6295 42.3705 35.2445 42.3705 37.8573 42.384C38.9913 42.3908 39.3565 42.7786 39.3587 43.9238C39.3632 47.1001 39.3587 50.2765 39.3587 53.4529V53.4484ZM30.9274 44.7872V62.1299H36.9488V44.7872H30.9274Z" fill="#001B2E"/>
<path d="M59.7696 12.5252C60.2633 10.4016 60.7254 8.42449 61.1853 6.44517H54.6139C54.9791 6.89379 55.2226 7.18235 55.4525 7.48217C55.9845 8.16975 55.9552 8.80999 55.2902 9.32172C53.7978 10.4714 52.2874 11.5964 50.7657 12.7033C50.1931 13.1203 49.5935 13.0887 49.1088 12.5274C48.6534 11.9999 48.7458 11.3236 49.3725 10.8344C50.52 9.93716 51.6968 9.076 52.9231 8.15172C52.3686 7.48894 51.7869 6.91408 51.3586 6.24003C51.1174 5.86355 50.928 5.23684 51.0836 4.88291C51.2391 4.53123 51.8456 4.18857 52.2671 4.17504C55.6667 4.06007 59.0685 4.01498 62.4703 3.97215C63.5411 3.95863 64.0393 4.54701 63.8026 5.6043C63.0835 8.80999 62.3486 12.0112 61.5505 15.1966C61.4491 15.6001 60.9734 16.087 60.5812 16.1885C60.2385 16.2764 59.6862 15.9608 59.3751 15.6677C58.7664 15.0929 58.2637 14.4075 57.6573 13.6997C56.1626 14.8291 54.6906 15.9405 53.2207 17.0519C52.9299 17.2728 52.6459 17.5073 52.3438 17.7079C51.7328 18.1114 51.1647 18.037 50.7003 17.4735C50.2968 16.982 50.387 16.2696 50.9483 15.83C52.1409 14.8922 53.3627 13.9905 54.5733 13.0752C55.3353 12.4981 56.0928 11.9142 56.8592 11.3461C57.7497 10.6879 58.2231 10.7465 58.949 11.5828C59.1857 11.8534 59.4224 12.1261 59.7741 12.5274L59.7696 12.5252Z" fill="#E95A0C"/>
<path d="M26.0197 58.1779C26.0197 59.8078 26.0265 61.4354 26.0175 63.0653C26.0107 64.1226 25.5959 64.5419 24.5319 64.5464C21.892 64.5554 19.2522 64.5554 16.6146 64.5464C15.5844 64.5419 15.1583 64.1429 15.1538 63.1329C15.138 59.819 15.1402 56.5051 15.1538 53.1912C15.1583 52.1678 15.5776 51.7575 16.592 51.753C19.2589 51.7417 21.9281 51.7394 24.595 51.753C25.5959 51.7575 26.013 52.1948 26.0197 53.2093C26.031 54.8662 26.022 56.5232 26.022 58.1801L26.0197 58.1779ZM23.6324 54.1561H17.5547V62.123H23.6324V54.1561Z" fill="#001B2E"/>
<path d="M22.1061 37.7266C24.6784 35.8758 27.0702 34.1557 29.4621 32.4356C29.6898 32.2733 29.9152 32.0997 30.1632 31.9735C30.7223 31.6894 31.2227 31.836 31.5834 32.3094C31.9486 32.7873 31.9171 33.3126 31.5361 33.7815C31.3986 33.9505 31.1979 34.0745 31.0176 34.2053C28.0103 36.374 25.0007 38.5381 21.9957 40.7113C21.4997 41.0698 21.006 41.3921 20.3771 41.063C19.7503 40.7339 19.7346 40.1432 19.7391 39.5323C19.7503 37.677 19.7616 35.8216 19.7346 33.9686C19.7233 33.2855 19.942 32.8031 20.5191 32.4131C21.9371 31.4527 23.3212 30.4405 24.7257 29.4599C25.4854 28.9301 26.155 28.9729 26.5855 29.55C27.0454 30.1655 26.8696 30.817 26.0648 31.3919C24.9218 32.2079 23.7541 32.9902 22.6382 33.8401C22.3767 34.0407 22.1557 34.4465 22.1309 34.7756C22.0633 35.6909 22.1061 36.6152 22.1061 37.7266Z" fill="#E95A0C"/>
<path d="M75.3449 57.2516C74.9143 64.6368 71.8011 70.7258 65.5272 75.1105C64.79 75.6268 64.1836 75.6087 63.4645 75.097C56.8683 70.4147 53.6761 64.0011 53.7234 55.9553C53.7257 55.5112 54.0571 54.907 54.4268 54.65C57.4927 52.5129 60.6082 50.4479 63.6967 48.3469C64.2648 47.9614 64.7765 47.9794 65.3311 48.3559C68.4241 50.4547 71.5103 52.5603 74.6235 54.6275C75.6019 55.2767 75.2164 56.2236 75.3449 57.2561V57.2516ZM73.0004 57.1817C73.1695 56.6429 72.7614 56.1852 72.0626 55.7321C69.7293 54.2217 67.4389 52.6459 65.153 51.0656C64.6954 50.75 64.3843 50.7072 63.8996 51.0431C61.4761 52.7226 59.0279 54.366 56.5729 55.9981C56.1739 56.2619 56.0229 56.5459 56.0432 57.0216C56.3182 63.3992 58.8927 68.5977 63.9379 72.5541C64.382 72.9035 64.6683 72.8607 65.0944 72.5315C70.0156 68.7172 72.4977 63.6381 73.0004 57.1839V57.1817Z" fill="#E95A0C"/>
<path d="M45.4838 19.4167C45.4703 24.0268 41.8408 27.8727 37.3005 28.0892C32.625 28.3123 28.6754 24.9601 28.1637 20.3365C28.0622 19.4144 28.4004 18.8531 29.1195 18.7449C29.8409 18.6389 30.3774 19.0718 30.4676 20.0006C30.7764 23.2153 33.5087 25.7356 36.7843 25.7379C39.5188 25.7379 41.9287 24.0043 42.8034 21.4095C43.6736 18.8238 42.7831 15.9653 40.5986 14.3354C38.3668 12.6694 35.3843 12.6266 33.1255 14.2294C32.9429 14.3602 32.7738 14.5112 32.5889 14.6375C31.9442 15.0838 31.2701 15.0275 30.8779 14.4616C30.4563 13.8552 30.5736 13.2871 31.1169 12.8159C32.4717 11.6414 34.0498 10.9493 35.8262 10.7465C40.9864 10.1581 45.5019 14.2204 45.4861 19.4167H45.4838Z" fill="#001B2E"/>
<path d="M37.97 15.0772C38.2608 15.1336 38.5133 15.1606 38.75 15.235C39.3384 15.4244 39.6111 15.8527 39.5548 16.4569C39.4984 17.0701 39.1332 17.442 38.52 17.4826C37.8753 17.5254 37.226 17.4758 36.5813 17.5254C36.3807 17.5412 36.1935 17.7441 36.0019 17.8636C36.1913 17.9786 36.3694 18.1544 36.5768 18.1972C36.9014 18.2649 37.2486 18.222 37.5822 18.2626C38.8244 18.4204 39.6923 19.2387 39.929 20.4538C40.1454 21.563 39.6021 22.7397 38.5539 23.2875C38.1571 23.495 37.9587 23.7114 37.8144 24.1713C37.6949 24.55 37.1697 25.0189 36.8 25.0414C36.4257 25.0662 35.8644 24.674 35.6728 24.311C35.4631 23.9188 35.3752 23.628 34.8635 23.5468C34.2571 23.4499 33.9662 22.9562 34.0113 22.3655C34.0564 21.7771 34.4058 21.3578 35.028 21.3127C35.6705 21.2654 36.322 21.3082 36.9645 21.2586C37.1764 21.2429 37.3748 21.0603 37.58 20.9543C37.3681 20.8281 37.1719 20.6342 36.9442 20.5913C36.4505 20.4967 35.9163 20.562 35.4474 20.411C34.3946 20.0706 33.7634 19.2861 33.6349 18.1905C33.5041 17.061 33.9753 16.1818 34.9243 15.5348C35.1859 15.3545 35.4676 15.0637 35.5375 14.7729C35.6998 14.1056 36.0403 13.684 36.7256 13.6818C37.4109 13.6818 37.8032 14.0875 37.8933 14.7729C37.9046 14.854 37.9317 14.9352 37.9677 15.075L37.97 15.0772Z" fill="#001B2E"/>
<path d="M29.9062 15.1108C30.5532 15.0905 31.0852 15.6045 31.0965 16.265C31.1123 17.0473 30.4901 17.8002 29.807 17.7574C29.1374 17.7168 28.7114 17.3426 28.6595 16.6438C28.6009 15.8593 29.2051 15.1311 29.9039 15.1108H29.9062Z" fill="#001B2E"/>
<path d="M63.2908 62.5718C64.5059 61.3319 65.5655 60.2498 66.6273 59.1677C66.8054 58.9874 66.9767 58.798 67.1706 58.6379C67.7251 58.178 68.3947 58.1848 68.832 58.665C69.3009 59.1812 69.3235 59.7696 68.8523 60.2566C67.3058 61.8504 65.739 63.4217 64.1452 64.9659C63.629 65.4641 63 65.41 62.4793 64.9141C61.706 64.1769 60.9486 63.4239 60.2136 62.6484C59.7222 62.1299 59.6816 61.5415 60.1731 60.987C60.6149 60.4888 61.3476 60.4933 61.8931 61.0208C62.3553 61.4671 62.7588 61.9744 63.2931 62.5695L63.2908 62.5718Z" fill="#E95A0C"/>
</svg>
