<svg width="90" height="87" viewBox="0 0 90 87" fill="none" xmlns="http://www.w3.org/2000/svg">
<path d="M30.1317 63.4261H32.8144V80.9018H35.5286V64.826H38.2406V80.9153H40.9233V64.8148H43.6353V80.8995H46.3495V60.7524H49.0322V80.9108H51.7442V56.7194H54.4562V80.9221H57.1388V56.7081H59.8215V80.9041H62.5335V59.4268H65.2455V80.9176H67.9282V59.4156H70.6401V80.8995H73.3521V54.0029H76.0348V80.9108H78.7468V49.9698H81.4588V80.9424H85.4602V83.6115H4.54257V80.9875H8.51699V70.2274H11.2312V80.9131H13.9139V66.1628H16.6259V80.895H19.3401V62.1005H22.0228V80.9063H24.7348V60.7659H27.4468V80.9176H30.1295V63.4261H30.1317Z" fill="#001B2E"/>
<path d="M50.1457 48.2927C49.2575 48.4663 48.4437 48.6264 47.6389 48.7842C46.2435 44.4626 43.173 41.2637 40.815 37.6319C38.5967 34.2143 36.2071 30.9094 33.9212 27.5347C33.6123 27.0793 33.29 26.9305 32.7557 26.935C29.2118 26.9576 25.668 26.9621 22.1242 26.9328C21.5651 26.9283 21.2765 27.1334 20.979 27.5707C17.0744 33.2765 13.1451 38.9665 9.23605 44.67C6.10701 49.2328 6.58493 54.242 10.4962 58.1262C10.5751 58.2029 10.6383 58.293 10.7374 58.4103C10.1874 59.064 9.65085 59.7065 9.04893 60.4234C8.78067 60.1867 8.52818 59.9838 8.29598 59.7584C3.87745 55.4368 3.23271 48.6805 6.78557 43.4752C10.7622 37.6477 14.7682 31.8405 18.7832 26.0378C19.1868 25.4562 19.295 24.8655 19.3874 24.1802C19.7278 21.6643 18.9951 19.5701 17.2232 17.7846C16.8129 17.3698 16.4928 16.8558 16.1637 16.3689C14.9305 14.5474 15.041 12.2276 16.4274 10.5707C17.8048 8.92276 20.102 8.36368 22.0858 9.27443C23.718 10.0229 25.2983 10.8885 26.9259 11.6483C27.2213 11.7858 27.6902 11.7903 27.9877 11.6528C29.4395 10.981 30.862 10.2438 32.2935 9.52918C34.6336 8.36142 36.9623 8.75143 38.4885 10.5662C39.9899 12.3494 39.9809 14.7007 38.466 16.7747C38.2495 17.07 38.0669 17.3969 37.8077 17.6493C35.887 19.5227 35.1363 21.7816 35.5714 24.4214C35.6503 24.8971 35.754 25.4201 36.0155 25.8056C39.9741 31.6105 43.9959 37.3727 47.9139 43.2069C48.7774 44.4919 49.2981 46.0068 49.9564 47.4248C50.0691 47.666 50.0759 47.9568 50.1457 48.295V48.2927ZM27.4715 18.8487C29.2682 18.8487 31.0672 18.8757 32.8639 18.8261C33.2178 18.8171 33.671 18.6052 33.8941 18.3347C34.7508 17.2954 35.5376 16.1998 36.3356 15.1155C37.066 14.1235 37.0953 13.1474 36.4393 12.3336C35.763 11.4927 34.7621 11.3236 33.6281 11.8805C31.8675 12.7484 30.1046 13.6118 28.362 14.5113C27.724 14.8404 27.1649 14.8246 26.5314 14.4978C24.7888 13.596 23.0259 12.7304 21.263 11.8647C20.1742 11.3281 19.1845 11.4927 18.5104 12.2862C17.8296 13.0911 17.8296 14.0875 18.5465 15.0659C19.3603 16.175 20.1696 17.2887 21.0376 18.355C21.245 18.6097 21.6665 18.8171 21.9957 18.8261C23.8194 18.8712 25.6455 18.8487 27.4715 18.8487ZM32.8188 21.5945H22.1129V24.187H32.8188V21.5945Z" fill="#E95A0C"/>
<path d="M5.33373 69.8578C4.76113 69.1296 4.23135 68.4533 3.67453 67.7455C6.92756 65.189 10.1107 62.689 13.2938 60.1889C16.2358 57.8782 19.1935 55.59 22.1061 53.2432C22.8906 52.612 23.5804 52.5376 24.4957 52.9254C29.1239 54.8889 33.7814 56.7803 38.4028 58.7596C39.1896 59.0955 39.69 58.9963 40.3438 58.5004C45.0689 54.9114 49.8256 51.3654 54.5733 47.8057C55.626 47.0167 55.874 47.0009 56.9877 47.6953C59.898 49.5078 62.8039 51.327 65.7143 53.1418C65.9487 53.2883 66.1877 53.4303 66.4717 53.6039C72.5066 48.0041 78.5212 42.4201 84.6102 36.7684C85.2144 37.4199 85.796 38.0489 86.4092 38.7117C86.2379 38.8988 86.0981 39.0679 85.9403 39.2167C79.9415 44.7872 73.9427 50.3554 67.9438 55.9237C66.9564 56.8412 66.5822 56.875 65.428 56.1536C62.2606 54.172 59.0932 52.1927 55.8921 50.1931C53.4641 52.0124 51.0565 53.8136 48.6511 55.6171C46.0856 57.54 43.5021 59.4382 40.9705 61.404C40.1274 62.06 39.3834 62.1096 38.4163 61.697C33.7679 59.7132 29.0901 57.7925 24.4348 55.8245C23.8532 55.5787 23.4542 55.6035 22.9335 56.0161C17.3359 60.4526 11.7135 64.8576 6.09796 69.2717C5.87703 69.4452 5.6516 69.6121 5.32922 69.8578H5.33373Z" fill="#E95A0C"/>
<path d="M45.0149 26.8877C45.0149 23.7384 45.0081 20.6477 45.0194 17.5569C45.0216 16.7273 45.5086 16.3035 46.2998 16.1367C51.8185 14.9622 57.3371 13.7764 62.8535 12.5951C63.4577 12.4666 64.0619 12.3314 64.666 12.2029C65.942 11.9323 66.6138 12.4621 66.616 13.7674C66.6228 19.0268 66.6183 24.2862 66.6183 29.5456C66.6183 35.5354 66.6183 41.5275 66.6183 47.5173V48.4957H63.9514V40.4972H59.9229V37.7852H63.8522V35.071H59.9116V32.3883H63.8657V29.6741H59.9296V26.9621H63.8793V24.2794H59.9161V21.5967H63.8612V15.1425C58.5049 16.29 53.1643 17.433 47.7494 18.5917V26.8922H45.0126L45.0149 26.8877Z" fill="#001B2E"/>
<path d="M77.3738 28.2807H74.7565V25.6115H69.3618V22.9289H74.6708V20.2146H69.3799V17.5319H74.6551V14.8177H69.3686V12.135H74.6686V7.85402C69.3258 7.09204 63.9672 6.32782 58.5297 5.55232V10.6922H55.829C55.829 8.39281 55.7952 6.12267 55.847 3.8548C55.865 3.01392 56.6248 2.54727 57.5626 2.68028C60.7908 3.13341 64.019 3.60006 67.245 4.0622C70.1667 4.48151 73.0883 4.90082 76.0077 5.32914C77.0041 5.47568 77.4166 5.91753 77.4189 6.88239C77.4257 13.8867 77.4212 20.8887 77.4189 27.8929C77.4189 27.9989 77.3941 28.1071 77.3738 28.2807Z" fill="#001B2E"/>
<path d="M57.0891 44.4624H54.4741V29.9782C50.4997 30.8258 46.6109 31.6577 42.6004 32.5143C42.4156 31.6396 42.2375 30.8055 42.0436 29.888C43.9034 29.4822 45.7047 29.0854 47.5059 28.6977C50.1119 28.1364 52.718 27.5773 55.3262 27.025C56.4016 26.7973 57.1545 27.3338 57.159 28.3956C57.1748 33.6798 57.1613 38.9618 57.159 44.246C57.159 44.2978 57.1297 44.3497 57.0937 44.4646L57.0891 44.4624Z" fill="#001B2E"/>
<path d="M26.0739 51.2052C26.4256 50.0623 25.738 49.5911 24.9174 49.0568C23.8466 48.358 23.4137 47.2286 23.407 45.8962H26.0288C26.1708 46.6763 26.5518 47.2444 27.4986 47.2105C28.1411 47.188 28.5988 46.931 28.7611 46.311C28.9166 45.7159 28.6348 45.2695 28.105 44.9945C27.3318 44.5932 26.5541 44.2055 25.7741 43.8222C24.3132 43.1031 23.4453 41.9624 23.425 40.3145C23.4047 38.6733 24.214 37.501 25.6658 36.7368C25.8732 36.6264 26.0243 36.3062 26.0897 36.056C26.1618 35.7697 26.1054 35.4518 26.1054 35.1024H28.7182C28.752 35.1858 28.7971 35.2377 28.7904 35.2828C28.6551 36.1529 28.9865 36.6557 29.7913 37.111C30.9951 37.7896 31.4911 38.9822 31.5024 40.4137H28.9414C28.5108 39.3 28.1344 38.9461 27.2506 39.1445C26.8381 39.2369 26.288 39.6494 26.2024 40.0101C26.1167 40.3708 26.421 41.0133 26.7547 41.2455C27.4828 41.755 28.335 42.0887 29.1398 42.4854C30.6006 43.2023 31.4685 44.3475 31.4888 45.9932C31.5091 47.6321 30.7043 48.8089 29.2503 49.5731C29.0429 49.6813 28.8896 50.0037 28.8264 50.2539C28.7543 50.5402 28.8107 50.8581 28.8107 51.2098H26.0784L26.0739 51.2052Z" fill="#E95A0C"/>
<path d="M80.1242 37.7199H77.437V33.7297H69.3912V31.0583C69.5761 31.0402 69.7902 31.0041 70.0044 31.0041C72.8111 30.9996 75.62 30.9974 78.4266 31.0041C79.644 31.0064 80.1197 31.4753 80.1242 32.6724C80.1332 34.3248 80.1242 35.9795 80.1242 37.7199Z" fill="#001B2E"/>
<path d="M74.6889 36.4663V39.0543H69.3641V36.4663H74.6889Z" fill="#001B2E"/>
<path d="M74.6844 41.861V44.458H69.3889V41.861H74.6844Z" fill="#001B2E"/>
<path d="M51.7486 35.1046V37.6836H47.7742V35.1046H51.7486Z" fill="#001B2E"/>
<path d="M51.7261 40.4994V43.0896H49.1201V40.4994H51.7261Z" fill="#001B2E"/>
<path d="M18.0371 44.4627V41.8589H20.6567V44.4627H18.0371Z" fill="#E95A0C"/>
<path d="M36.8789 41.8678V44.4513H34.2526V41.8678H36.8789Z" fill="#E95A0C"/>
</svg>
